<svg id="visual" viewBox="0 0 1600 700" width="1600" height="700" xmlns="http://www.w3.org/2000/svg" xmlns:xlink="http://www.w3.org/1999/xlink" version="1.1"><path d="M0 122L44.5 119.5C89 117 178 112 266.8 106.7C355.7 101.3 444.3 95.7 533.2 90.5C622 85.3 711 80.7 800 85.5C889 90.3 978 104.7 1066.8 111.2C1155.7 117.7 1244.3 116.3 1333.2 112.5C1422 108.7 1511 102.3 1555.5 99.2L1600 96L1600 0L1555.5 0C1511 0 1422 0 1333.2 0C1244.3 0 1155.7 0 1066.8 0C978 0 889 0 800 0C711 0 622 0 533.2 0C444.3 0 355.7 0 266.8 0C178 0 89 0 44.5 0L0 0Z" fill="#ffdabc"></path><path d="M0 109L44.5 104.2C89 99.3 178 89.7 266.8 84.7C355.7 79.7 444.3 79.3 533.2 84C622 88.7 711 98.3 800 102.8C889 107.3 978 106.7 1066.8 100.7C1155.7 94.7 1244.3 83.3 1333.2 77C1422 70.7 1511 69.3 1555.5 68.7L1600 68L1600 0L1555.5 0C1511 0 1422 0 1333.2 0C1244.3 0 1155.7 0 1066.8 0C978 0 889 0 800 0C711 0 622 0 533.2 0C444.3 0 355.7 0 266.8 0C178 0 89 0 44.5 0L0 0Z" fill="#ffd5b3"></path><path d="M0 90L44.5 87.7C89 85.3 178 80.7 266.8 80.3C355.7 80 444.3 84 533.2 84.8C622 85.7 711 83.3 800 85.2C889 87 978 93 1066.8 95.2C1155.7 97.3 1244.3 95.7 1333.2 91.3C1422 87 1511 80 1555.5 76.5L1600 73L1600 0L1555.5 0C1511 0 1422 0 1333.2 0C1244.3 0 1155.7 0 1066.8 0C978 0 889 0 800 0C711 0 622 0 533.2 0C444.3 0 355.7 0 266.8 0C178 0 89 0 44.5 0L0 0Z" fill="#ffd0a9"></path><path d="M0 57L44.5 57.8C89 58.7 178 60.3 266.8 61.8C355.7 63.3 444.3 64.7 533.2 68C622 71.3 711 76.7 800 75.3C889 74 978 66 1066.8 61.5C1155.7 57 1244.3 56 1333.2 55.3C1422 54.7 1511 54.3 1555.5 54.2L1600 54L1600 0L1555.5 0C1511 0 1422 0 1333.2 0C1244.3 0 1155.7 0 1066.8 0C978 0 889 0 800 0C711 0 622 0 533.2 0C444.3 0 355.7 0 266.8 0C178 0 89 0 44.5 0L0 0Z" fill="#ffcca0"></path><path d="M0 50L44.5 53C89 56 178 62 266.8 64.3C355.7 66.7 444.3 65.3 533.2 66.5C622 67.7 711 71.3 800 70.5C889 69.7 978 64.3 1066.8 60C1155.7 55.7 1244.3 52.3 1333.2 51.5C1422 50.7 1511 52.3 1555.5 53.2L1600 54L1600 0L1555.5 0C1511 0 1422 0 1333.2 0C1244.3 0 1155.7 0 1066.8 0C978 0 889 0 800 0C711 0 622 0 533.2 0C444.3 0 355.7 0 266.8 0C178 0 89 0 44.5 0L0 0Z" fill="#ffc797"></path><path d="M0 43L44.5 45.5C89 48 178 53 266.8 54C355.7 55 444.3 52 533.2 49.3C622 46.7 711 44.3 800 46.7C889 49 978 56 1066.8 57.5C1155.7 59 1244.3 55 1333.2 52C1422 49 1511 47 1555.5 46L1600 45L1600 0L1555.5 0C1511 0 1422 0 1333.2 0C1244.3 0 1155.7 0 1066.8 0C978 0 889 0 800 0C711 0 622 0 533.2 0C444.3 0 355.7 0 266.8 0C178 0 89 0 44.5 0L0 0Z" fill="#ffc28e"></path><path d="M0 56L44.5 53.2C89 50.3 178 44.7 266.8 44.8C355.7 45 444.3 51 533.2 51C622 51 711 45 800 41.8C889 38.7 978 38.3 1066.8 40.5C1155.7 42.7 1244.3 47.3 1333.2 50.2C1422 53 1511 54 1555.5 54.5L1600 55L1600 0L1555.5 0C1511 0 1422 0 1333.2 0C1244.3 0 1155.7 0 1066.8 0C978 0 889 0 800 0C711 0 622 0 533.2 0C444.3 0 355.7 0 266.8 0C178 0 89 0 44.5 0L0 0Z" fill="#ffbd85"></path><path d="M0 26L44.5 28.5C89 31 178 36 266.8 38C355.7 40 444.3 39 533.2 38.7C622 38.3 711 38.7 800 38.5C889 38.3 978 37.7 1066.8 35.3C1155.7 33 1244.3 29 1333.2 30.8C1422 32.7 1511 40.3 1555.5 44.2L1600 48L1600 0L1555.5 0C1511 0 1422 0 1333.2 0C1244.3 0 1155.7 0 1066.8 0C978 0 889 0 800 0C711 0 622 0 533.2 0C444.3 0 355.7 0 266.8 0C178 0 89 0 44.5 0L0 0Z" fill="#ffb87c"></path><path d="M0 26L44.5 25.8C89 25.7 178 25.3 266.8 26.7C355.7 28 444.3 31 533.2 30.3C622 29.7 711 25.3 800 22.7C889 20 978 19 1066.8 18.7C1155.7 18.3 1244.3 18.7 1333.2 21.8C1422 25 1511 31 1555.5 34L1600 37L1600 0L1555.5 0C1511 0 1422 0 1333.2 0C1244.3 0 1155.7 0 1066.8 0C978 0 889 0 800 0C711 0 622 0 533.2 0C444.3 0 355.7 0 266.8 0C178 0 89 0 44.5 0L0 0Z" fill="#ffb373"></path><path d="M0 20L44.5 19.5C89 19 178 18 266.8 18C355.7 18 444.3 19 533.2 19.2C622 19.3 711 18.7 800 18C889 17.3 978 16.7 1066.8 17.5C1155.7 18.3 1244.3 20.7 1333.2 20.5C1422 20.3 1511 17.7 1555.5 16.3L1600 15L1600 0L1555.5 0C1511 0 1422 0 1333.2 0C1244.3 0 1155.7 0 1066.8 0C978 0 889 0 800 0C711 0 622 0 533.2 0C444.3 0 355.7 0 266.8 0C178 0 89 0 44.5 0L0 0Z" fill="#ffae6b"></path><path d="M0 11L44.5 10.2C89 9.3 178 7.7 266.8 8.5C355.7 9.3 444.3 12.7 533.2 12.7C622 12.7 711 9.3 800 7.8C889 6.3 978 6.7 1066.8 8C1155.7 9.3 1244.3 11.7 1333.2 12.7C1422 13.7 1511 13.3 1555.5 13.2L1600 13L1600 0L1555.5 0C1511 0 1422 0 1333.2 0C1244.3 0 1155.7 0 1066.8 0C978 0 889 0 800 0C711 0 622 0 533.2 0C444.3 0 355.7 0 266.8 0C178 0 89 0 44.5 0L0 0Z" fill="#ffa962"></path></svg>