<svg id="visual" viewBox="0 0 900 600" width="900" height="600" xmlns="http://www.w3.org/2000/svg" xmlns:xlink="http://www.w3.org/1999/xlink" version="1.1"><path d="M0 221L21.5 213.5C43 206 86 191 128.8 191.7C171.7 192.3 214.3 208.7 257.2 209.3C300 210 343 195 385.8 185.5C428.7 176 471.3 172 514.2 179.7C557 187.3 600 206.7 642.8 206.2C685.7 205.7 728.3 185.3 771.2 185.8C814 186.3 857 207.7 878.5 218.3L900 229L900 0L878.5 0C857 0 814 0 771.2 0C728.3 0 685.7 0 642.8 0C600 0 557 0 514.2 0C471.3 0 428.7 0 385.8 0C343 0 300 0 257.2 0C214.3 0 171.7 0 128.8 0C86 0 43 0 21.5 0L0 0Z" fill="#ffdcc5"></path><path d="M0 127L21.5 134.7C43 142.3 86 157.7 128.8 160C171.7 162.3 214.3 151.7 257.2 150.7C300 149.7 343 158.3 385.8 158C428.7 157.7 471.3 148.3 514.2 150.8C557 153.3 600 167.7 642.8 175.5C685.7 183.3 728.3 184.7 771.2 188.3C814 192 857 198 878.5 201L900 204L900 0L878.5 0C857 0 814 0 771.2 0C728.3 0 685.7 0 642.8 0C600 0 557 0 514.2 0C471.3 0 428.7 0 385.8 0C343 0 300 0 257.2 0C214.3 0 171.7 0 128.8 0C86 0 43 0 21.5 0L0 0Z" fill="#ffc399"></path><path d="M0 151L21.5 145.2C43 139.3 86 127.7 128.8 126.7C171.7 125.7 214.3 135.3 257.2 139.3C300 143.3 343 141.7 385.8 138C428.7 134.3 471.3 128.7 514.2 127.8C557 127 600 131 642.8 130.8C685.7 130.7 728.3 126.3 771.2 120.8C814 115.3 857 108.7 878.5 105.3L900 102L900 0L878.5 0C857 0 814 0 771.2 0C728.3 0 685.7 0 642.8 0C600 0 557 0 514.2 0C471.3 0 428.7 0 385.8 0C343 0 300 0 257.2 0C214.3 0 171.7 0 128.8 0C86 0 43 0 21.5 0L0 0Z" fill="#ffa96e"></path><path d="M0 82L21.5 85.2C43 88.3 86 94.7 128.8 99.8C171.7 105 214.3 109 257.2 109.3C300 109.7 343 106.3 385.8 102.8C428.7 99.3 471.3 95.7 514.2 90.2C557 84.7 600 77.3 642.8 79.5C685.7 81.7 728.3 93.3 771.2 94.3C814 95.3 857 85.7 878.5 80.8L900 76L900 0L878.5 0C857 0 814 0 771.2 0C728.3 0 685.7 0 642.8 0C600 0 557 0 514.2 0C471.3 0 428.7 0 385.8 0C343 0 300 0 257.2 0C214.3 0 171.7 0 128.8 0C86 0 43 0 21.5 0L0 0Z" fill="#fb8f43"></path><path d="M0 56L21.5 58.2C43 60.3 86 64.7 128.8 62C171.7 59.3 214.3 49.7 257.2 43C300 36.3 343 32.7 385.8 33C428.7 33.3 471.3 37.7 514.2 38.7C557 39.7 600 37.3 642.8 40.7C685.7 44 728.3 53 771.2 55C814 57 857 52 878.5 49.5L900 47L900 0L878.5 0C857 0 814 0 771.2 0C728.3 0 685.7 0 642.8 0C600 0 557 0 514.2 0C471.3 0 428.7 0 385.8 0C343 0 300 0 257.2 0C214.3 0 171.7 0 128.8 0C86 0 43 0 21.5 0L0 0Z" fill="#f5730a"></path></svg>